<svg width="21" height="20" viewBox="0 0 21 20" fill="none" xmlns="http://www.w3.org/2000/svg">
<g id="4200473_address_location_map_navigation_icon 1">
<g id="layer1">
<path id="path929" d="M10.2015 0.622559C6.41198 0.622559 3.32715 3.7074 3.32715 7.49694C3.32715 14.1649 9.81398 19.2341 9.81398 19.2341C9.92472 19.3225 10.0622 19.3706 10.2038 19.3706C10.3455 19.3706 10.483 19.3225 10.5937 19.2341C10.5937 19.2341 17.0805 14.1649 17.0805 7.49694C17.0805 3.7074 13.9911 0.622559 10.2015 0.622559ZM10.2015 1.87287C13.3155 1.87287 15.8302 4.38294 15.8302 7.49694C15.8302 12.9519 10.8907 17.2617 10.2061 17.8454C9.52485 17.2646 4.57745 12.954 4.57746 7.49694C4.57746 4.38294 7.08753 1.87287 10.2015 1.87287Z" fill="#AAFFC7"/>
<path id="circle931" d="M10.2016 4.37354C8.4831 4.37354 7.07813 5.77852 7.07813 7.497C7.07811 9.2155 8.48309 10.6251 10.2016 10.6251C11.9201 10.6251 13.3297 9.2155 13.3297 7.497C13.3297 5.77852 11.9201 4.37354 10.2016 4.37354ZM10.2016 5.62384C11.2445 5.62384 12.0794 6.45406 12.0794 7.497C12.0794 8.53993 11.2445 9.37476 10.2016 9.37476C9.15865 9.37476 8.32843 8.53993 8.32843 7.497C8.32844 6.45406 9.15865 5.62384 10.2016 5.62384Z" fill="#AAFFC7"/>
</g>
</g>
</svg>
