<svg width="18" height="19" viewBox="0 0 18 19" fill="none" xmlns="http://www.w3.org/2000/svg">
<g id="Icons/Behance/Line" clip-path="url(#clip0_269_578)">
<path id="Vector" d="M12.5728 4.14706C12.5728 3.99911 12.6833 3.9126 12.7793 3.9126H15.6054C15.7013 3.9126 15.8119 3.99911 15.8119 4.14706C15.8119 4.29501 15.7013 4.38152 15.6054 4.38152H12.7793C12.6833 4.38152 12.5728 4.29501 12.5728 4.14706Z" fill="#777E91" stroke="#B6CFBF"/>
<path id="Vector_2" d="M12.0727 10.9913H11.5727L16.3528 13.7173C15.7999 14.3045 15.0349 14.6637 14.1923 14.6637C12.5355 14.6637 11.1597 13.2618 11.1597 11.4913V10.0224C11.1597 8.25195 12.5355 6.8501 14.1923 6.8501C15.849 6.8501 17.2249 8.25195 17.2249 10.0224V10.7569C17.2249 10.9048 17.1143 10.9913 17.0184 10.9913H12.0727ZM11.5727 10.0224V10.5224H12.0727H16.3118H16.8118V10.0224C16.8118 8.5478 15.6572 7.31902 14.1923 7.31902C12.7274 7.31902 11.5727 8.5478 11.5727 10.0224Z" fill="#777E91" stroke="#B6CFBF"/>
<path id="Vector_3" d="M2.18135 4.38152H1.68135V4.88152V7.81938V8.31938H2.18135H5.71396C6.78861 8.31938 7.62701 7.4194 7.62701 6.35045C7.62701 5.2815 6.78861 4.38152 5.71396 4.38152H2.18135ZM7.33522 8.09844L6.9228 8.51865L7.40428 8.85754C8.21064 9.4251 8.74657 10.3898 8.74657 11.4917C8.74657 13.2622 7.37072 14.664 5.71396 14.664H1.97949C1.60482 14.664 1.26831 14.3426 1.26831 13.9049V4.58774C1.26831 4.19642 1.56867 3.9126 1.89875 3.9126H5.71396C6.98053 3.9126 8.04005 4.98561 8.04005 6.35045C8.04005 7.03894 7.76853 7.65695 7.33522 8.09844ZM2.18135 8.7883H1.68135V9.2883V13.6951V14.1951H2.18135H5.71396C7.1788 14.1951 8.33353 12.9663 8.33353 11.4917C8.33353 10.0171 7.1788 8.7883 5.71396 8.7883H2.18135Z" fill="#777E91" stroke="#B6CFBF"/>
</g>
<defs>
<clipPath id="clip0_269_578">
<rect width="16.9565" height="17.6271" fill="white" transform="translate(0.768311 0.474609)"/>
</clipPath>
</defs>
</svg>
