<svg width="18" height="19" viewBox="0 0 18 19" fill="none" xmlns="http://www.w3.org/2000/svg">
<g id="Icons/Dribbble/Line">
<path id="Vector" fill-rule="evenodd" clip-rule="evenodd" d="M9.33353 15.1637C12.4552 15.1637 14.9857 12.5331 14.9857 9.28799C14.9857 6.04293 12.4552 3.41229 9.33353 3.41229C6.21192 3.41229 3.68135 6.04293 3.68135 9.28799C3.68135 12.5331 6.21192 15.1637 9.33353 15.1637ZM9.33353 16.6326C13.2355 16.6326 16.3987 13.3443 16.3987 9.28799C16.3987 5.23166 13.2355 1.94336 9.33353 1.94336C5.43151 1.94336 2.26831 5.23166 2.26831 9.28799C2.26831 13.3443 5.43151 16.6326 9.33353 16.6326Z" fill="#B6CFBF"/>
<path id="Vector_2" d="M11.7881 16.1773C11.5372 14.3189 11.1193 12.6324 10.5309 11.0382C9.09084 11.764 7.48011 13.0322 5.26533 15.2936C4.87783 15.0094 4.51907 14.6857 4.19446 14.3282C6.52058 11.9435 8.2972 10.5178 9.98077 9.68338C9.76479 9.19665 9.53192 8.71682 9.28195 8.2414C7.29982 8.89082 5.03977 9.233 2.26831 9.28192C2.2687 8.77778 2.31796 8.28547 2.41144 7.80988C4.85737 7.75541 6.83599 7.46112 8.54851 6.93807C7.75362 5.61214 6.82196 4.30336 5.75125 2.9561C6.16874 2.7003 6.61374 2.48785 7.08053 2.32471C8.16098 3.70517 9.10765 5.06196 9.91832 6.4495C11.4414 5.8237 12.7913 4.97909 14.1389 3.90376C14.4853 4.23797 14.7993 4.60786 15.0756 5.0078C13.674 6.13483 12.2448 7.04828 10.6259 7.73689C10.8641 8.19939 11.0876 8.66703 11.2964 9.14164C12.8978 8.61422 14.4741 8.55972 16.3639 8.55414C16.3869 8.79548 16.3987 9.04035 16.3987 9.28801C16.3987 9.53619 16.3869 9.7815 16.3638 10.0234C14.5379 10.0301 13.1838 10.0836 11.8466 10.5021C12.4207 12.0558 12.8455 13.6985 13.1182 15.4911C12.7024 15.7658 12.257 15.9967 11.7881 16.1773Z" fill="#B6CFBF"/>
</g>
</svg>
