<svg width="32" height="24" viewBox="0 0 32 24" fill="none" xmlns="http://www.w3.org/2000/svg">
<g id="elements">
<path id="Vector" d="M27.6987 20C28.6978 20 29.4924 19.3713 30.2059 18.4922C31.6665 16.6926 29.2684 15.2545 28.3538 14.5501C27.424 13.8342 26.3859 13.4286 25.3333 13.3333M24 10.6667C25.8409 10.6667 27.3333 9.17428 27.3333 7.33333C27.3333 5.49238 25.8409 4 24 4" stroke="#FF8D00" stroke-width="2" stroke-linecap="round"/>
<path id="Vector_2" d="M4.3012 20C3.30213 20 2.50748 19.3713 1.79398 18.4922C0.33337 16.6926 2.73148 15.2545 3.64611 14.5501C4.57589 13.8342 5.61403 13.4286 6.66659 13.3333M7.33325 10.6667C5.4923 10.6667 3.99992 9.17428 3.99992 7.33333C3.99992 5.49238 5.4923 4 7.33325 4" stroke="#FF8D00" stroke-width="2" stroke-linecap="round"/>
<path id="Vector_3" d="M10.7783 16.1486C9.41595 16.991 5.8439 18.7111 8.01952 20.8636C9.08229 21.915 10.2659 22.667 11.7541 22.667H20.2457C21.7339 22.667 22.9175 21.915 23.9803 20.8636C26.1559 18.7111 22.5839 16.991 21.2215 16.1486C18.0268 14.1731 13.9731 14.1731 10.7783 16.1486Z" stroke="#FF8D00" stroke-width="2" stroke-linecap="round" stroke-linejoin="round"/>
<path id="Ellipse 1381" d="M20.6666 6.00016C20.6666 8.57749 18.5772 10.6668 15.9999 10.6668C13.4226 10.6668 11.3333 8.57749 11.3333 6.00016C11.3333 3.42283 13.4226 1.3335 15.9999 1.3335C18.5772 1.3335 20.6666 3.42283 20.6666 6.00016Z" stroke="#FF8D00" stroke-width="2"/>
</g>
</svg>
