<svg width="26" height="36" viewBox="0 0 26 36" fill="none" xmlns="http://www.w3.org/2000/svg">
<g id="elements">
<path id="Ellipse 1547" d="M18.75 6.3335C18.75 9.09492 15.3801 12.1668 13 12.1668C10.6199 12.1668 7.25 9.09492 7.25 6.3335C7.25 3.57207 9.82436 1.3335 13 1.3335C16.1756 1.3335 18.75 3.57207 18.75 6.3335Z" stroke="#FF0059" stroke-width="2"/>
<path id="Vector" d="M20.7464 13C23.6655 15.2255 25.5569 18.9948 23.8583 22.5086C23.4924 23.2657 22.6527 23.7565 21.7237 23.7565C20.779 23.7565 19.2274 23.4933 18.9259 24.5624L16.8228 32.0206C16.3843 33.5757 14.8083 34.6667 13.0002 34.6667C11.1922 34.6667 9.61613 33.5757 9.17761 32.0206L7.07454 24.5624C6.77306 23.4933 5.22144 23.7565 4.27677 23.7565C3.34773 23.7565 2.50807 23.2657 2.1421 22.5086C0.443517 18.9948 2.3351 15.2255 5.25417 13" stroke="#FF0059" stroke-width="2" stroke-linecap="round"/>
</g>
</svg>
