<svg width="30" height="30" viewBox="0 0 30 30" fill="none" xmlns="http://www.w3.org/2000/svg">
<g id="elements">
<path id="Vector" d="M5 27.6668L10.3333 22.3335M13 22.3335L18.3333 27.6668M11.6667 22.3335L11.6667 29.0002" stroke="#F43B00" stroke-width="1.5" stroke-linecap="round" stroke-linejoin="round"/>
<path id="Rectangle 368" d="M1.66675 14.8333C1.66675 12.0835 1.66675 10.7085 3.03358 9.85427C4.40042 9 6.60031 9 11.0001 9H12.3334C16.7332 9 18.9331 9 20.2999 9.85427C21.6667 10.7085 21.6667 12.0835 21.6667 14.8333V16.5C21.6667 19.2499 21.6667 20.6248 20.2999 21.4791C18.9331 22.3333 16.7332 22.3333 12.3334 22.3333H11.0001C6.60031 22.3333 4.40042 22.3333 3.03358 21.4791C1.66675 20.6248 1.66675 19.2499 1.66675 16.5V14.8333Z" stroke="#F43B00" stroke-width="1.5"/>
<path id="Rectangle 369" d="M21.6667 12.6662L21.8346 12.5655C24.6557 10.8726 26.0662 10.0262 27.1998 10.4349C28.3334 10.8436 28.3334 12.1985 28.3334 14.9084V16.4248C28.3334 19.1347 28.3334 20.4896 27.1998 20.8983C26.0662 21.307 24.6557 20.4605 21.8346 18.7677L21.6667 18.667" stroke="#F43B00" stroke-width="1.5" stroke-linecap="round"/>
<circle id="Ellipse 383" cx="15.6668" cy="5.66683" r="3.33333" stroke="#F43B00" stroke-width="1.5"/>
<ellipse id="Ellipse 384" cx="8.3335" cy="5" rx="4" ry="4" stroke="#F43B00" stroke-width="1.5"/>
</g>
</svg>
