<svg width="28" height="28" viewBox="0 0 28 28" fill="none" xmlns="http://www.w3.org/2000/svg">
<g id="elements">
<path id="Vector 3591" d="M10.2494 26.5L9.9361 22.1139C9.76766 19.7558 11.6353 17.75 13.9994 17.75C16.3635 17.75 18.2311 19.7558 18.0627 22.1139L17.7494 26.5" stroke="#8E13EE" stroke-width="2"/>
<path id="Rectangle 1147" d="M1.93948 15.5168C1.49821 12.6453 1.27757 11.2095 1.82045 9.93672C2.36333 8.6639 3.56778 7.79304 5.97667 6.05133L7.77648 4.75C10.7731 2.58333 12.2714 1.5 14.0002 1.5C15.7291 1.5 17.2274 2.58333 20.224 4.75L22.0238 6.05133C24.4327 7.79304 25.6372 8.6639 26.18 9.93672C26.7229 11.2095 26.5023 12.6453 26.061 15.5168L25.6847 17.9655C25.0592 22.0362 24.7464 24.0715 23.2865 25.2857C21.8266 26.5 19.6923 26.5 15.4238 26.5H12.5767C8.30816 26.5 6.17388 26.5 4.71399 25.2857C3.25411 24.0715 2.94133 22.0362 2.31578 17.9655L1.93948 15.5168Z" stroke="#8E13EE" stroke-width="2" stroke-linejoin="round"/>
</g>
</svg>
