<svg width="18" height="19" viewBox="0 0 18 19" fill="none" xmlns="http://www.w3.org/2000/svg">
<g id="Icons/Facebook/Line">
<path id="Vector" d="M8.98563 15.6637C12.4015 15.6637 15.1378 12.7908 15.1378 9.28799C15.1378 5.78524 12.4015 2.91229 8.98563 2.91229C5.56977 2.91229 2.83345 5.78524 2.83345 9.28799C2.83345 12.7908 5.56977 15.6637 8.98563 15.6637ZM15.5508 9.28799C15.5508 13.0866 12.5934 16.1326 8.98563 16.1326C5.37786 16.1326 2.42041 13.0866 2.42041 9.28799C2.42041 5.48935 5.37786 2.44336 8.98563 2.44336C12.5934 2.44336 15.5508 5.48935 15.5508 9.28799Z" fill="#777E91" stroke="#B6CFBF"/>
<path id="Vector_2" d="M7.57247 9.78804H8.07247V9.28804V7.81911C8.07247 6.8599 8.81565 6.11572 9.69203 6.11572H10.3986C10.4945 6.11572 10.6051 6.20224 10.6051 6.35019C10.6051 6.49814 10.4945 6.58465 10.3986 6.58465H9.69203C9.00757 6.58465 8.48551 7.1558 8.48551 7.81911V9.28804V9.78804H8.98551H10.3986C10.4945 9.78804 10.6051 9.87455 10.6051 10.0225C10.6051 10.1705 10.4945 10.257 10.3986 10.257H8.98551H8.48551V10.757V15.1637C8.48551 15.3117 8.37496 15.3982 8.27899 15.3982C8.18302 15.3982 8.07247 15.3117 8.07247 15.1637V10.757V10.257H7.57247H6.86595C6.76998 10.257 6.65942 10.1705 6.65942 10.0225C6.65942 9.87455 6.76998 9.78804 6.86595 9.78804H7.57247Z" fill="#777E91" stroke="#B6CFBF"/>
</g>
</svg>
