<svg width="31" height="32" viewBox="0 0 31 32" fill="none" xmlns="http://www.w3.org/2000/svg">
<g id="Group_fill">
<circle id="Ellipse 46" cx="15.5002" cy="12.1252" r="5.16667" fill="#108D15"/>
<circle id="Ellipse 47" cx="21.9585" cy="12.125" r="3.875" fill="#108D15"/>
<circle id="Ellipse 48" cx="9.0415" cy="12.125" r="3.875" fill="#108D15"/>
<path id="Subtract" fill-rule="evenodd" clip-rule="evenodd" d="M22.6924 23.7498H26.0199C26.6115 23.7498 27.0653 23.2411 26.9364 22.6637C26.5256 20.8238 25.3016 17.2915 21.9582 17.2915C20.8137 17.2915 19.9175 17.7054 19.2173 18.3237C21.1648 19.5872 22.1717 21.7997 22.6924 23.7498Z" fill="#108D15"/>
<path id="Subtract_2" fill-rule="evenodd" clip-rule="evenodd" d="M11.7826 18.3237C11.0824 17.7054 10.1863 17.2915 9.04174 17.2915C5.69836 17.2915 4.47434 20.8238 4.06354 22.6637C3.93462 23.2411 4.38842 23.7498 4.98004 23.7498H8.30749C8.82814 21.7997 9.83511 19.5872 11.7826 18.3237Z" fill="#108D15"/>
<path id="Rectangle 4160" d="M15.4998 18.5835C20.5094 18.5835 21.6332 23.2464 21.8853 25.3385C21.9513 25.8868 21.5105 26.3335 20.9582 26.3335H10.0415C9.48922 26.3335 9.04834 25.8868 9.11441 25.3385C9.36651 23.2464 10.4903 18.5835 15.4998 18.5835Z" fill="#108D15"/>
</g>
</svg>
