<svg width="31" height="32" viewBox="0 0 31 32" fill="none" xmlns="http://www.w3.org/2000/svg">
<g id="Group_fill">
<circle id="Ellipse 46" cx="15.4999" cy="12.1252" r="5.16667" fill="#FF9B26"/>
<circle id="Ellipse 47" cx="21.9583" cy="12.125" r="3.875" fill="#FF9B26"/>
<circle id="Ellipse 48" cx="9.04175" cy="12.125" r="3.875" fill="#FF9B26"/>
<path id="Subtract" fill-rule="evenodd" clip-rule="evenodd" d="M22.6926 23.7498H26.0201C26.6117 23.7498 27.0655 23.2411 26.9366 22.6637C26.5258 20.8238 25.3018 17.2915 21.9584 17.2915C20.8139 17.2915 19.9177 17.7054 19.2175 18.3237C21.165 19.5872 22.172 21.7997 22.6926 23.7498Z" fill="#FF9B26"/>
<path id="Subtract_2" fill-rule="evenodd" clip-rule="evenodd" d="M11.7826 18.3237C11.0824 17.7054 10.1863 17.2915 9.04174 17.2915C5.69836 17.2915 4.47434 20.8238 4.06354 22.6637C3.93462 23.2411 4.38842 23.7498 4.98004 23.7498H8.30749C8.82814 21.7997 9.83511 19.5872 11.7826 18.3237Z" fill="#FF9B26"/>
<path id="Rectangle 4160" d="M15.5001 18.5835C20.5096 18.5835 21.6334 23.2464 21.8855 25.3385C21.9516 25.8868 21.5107 26.3335 20.9584 26.3335H10.0417C9.48946 26.3335 9.04858 25.8868 9.11466 25.3385C9.36675 23.2464 10.4905 18.5835 15.5001 18.5835Z" fill="#FF9B26"/>
</g>
</svg>
