<svg width="25" height="26" viewBox="0 0 25 26" fill="none" xmlns="http://www.w3.org/2000/svg">
<path d="M21.5 3.5H3.5C3.22386 3.5 3 3.72386 3 4V15H22V4C22 3.72386 21.7761 3.5 21.5 3.5Z" stroke="#4883FF"/>
<path d="M24 15.1176C24.2761 15.1176 24.5 14.8938 24.5 14.6176V3.5C24.4983 2.11997 23.38 1.00165 22 1H3C1.61997 1.00165 0.501653 2.11997 0.5 3.5V17.5C0.501653 18.88 1.61997 19.9983 3 20H8.5V22.2325L7.2225 23.0825C7.08302 23.1756 6.99947 23.3323 7 23.5V24C7 24.5523 7.44772 25 8 25H17C17.5523 25 18 24.5523 18 24V23.5C18 23.3329 17.9165 23.1768 17.7775 23.084L16.5 22.2325V20.0882C16.5 19.8121 16.2761 19.5882 16 19.5882C15.7239 19.5882 15.5 19.8121 15.5 20.0882V22.5C15.5 22.6671 15.5835 22.8232 15.7225 22.916L17 23.7675V24H8V23.7675L9.2775 22.9175C9.41698 22.8244 9.50053 22.6677 9.5 22.5V20H22C23.38 19.9983 24.4983 18.88 24.5 17.5V15C24.5 14.7239 24.2761 14.5 24 14.5H1.38235C1.10621 14.5 0.882353 14.7239 0.882353 15C0.882353 15.2761 1.10621 15.5 1.38235 15.5H23.5V17.5C23.5 18.3284 22.8284 19 22 19H3C2.17157 19 1.5 18.3284 1.5 17.5V3.5C1.5 2.67157 2.17157 2 3 2H22C22.8284 2 23.5 2.67157 23.5 3.5V14.6176C23.5 14.8938 23.7239 15.1176 24 15.1176Z" fill="#4883FF" stroke="#4883FF" stroke-width="0.4"/>
<path d="M10.3534 5.35239C10.1581 5.1572 9.84164 5.1572 9.64639 5.35239L6.64639 8.35239C6.4512 8.54764 6.4512 8.86414 6.64639 9.05939L9.64639 12.0594C9.84258 12.2489 10.1544 12.2462 10.3473 12.0533C10.5402 11.8604 10.5429 11.5486 10.3534 11.3524L7.70689 8.70589L10.3534 6.05939C10.5486 5.86414 10.5486 5.54764 10.3534 5.35239Z" fill="#4883FF"/>
<path d="M14.6468 12.0594C14.842 12.2546 15.1585 12.2546 15.3538 12.0594L18.3538 9.05936C18.549 8.86411 18.549 8.54761 18.3538 8.35236L15.3538 5.35236C15.2283 5.22239 15.0424 5.17026 14.8675 5.21601C14.6927 5.26177 14.5562 5.3983 14.5104 5.57311C14.4647 5.74792 14.5168 5.93383 14.6468 6.05936L17.2933 8.70586L14.6468 11.3524C14.4516 11.5476 14.4516 11.8641 14.6468 12.0594Z" fill="#4883FF"/>
</svg>
