<svg width="27" height="26" viewBox="0 0 27 26" fill="none" xmlns="http://www.w3.org/2000/svg">
<path d="M0.933333 17.3083C0.694133 17.3083 0.5 17.1229 0.5 16.8945V2.24138C0.5 1.55697 1.08327 1 1.8 1H25.2C25.9167 1 26.5 1.55697 26.5 2.24138V6.30629C26.5 6.5347 26.3059 6.72008 26.0667 6.72008C25.8275 6.72008 25.6333 6.5347 25.6333 6.30629V2.24138C25.6333 2.01379 25.4383 1.82759 25.2 1.82759H1.8C1.56167 1.82759 1.36667 2.01379 1.36667 2.24138V16.8945C1.36667 17.1229 1.17253 17.3083 0.933333 17.3083Z" fill="#7F56D9" stroke="#CEF9D0" stroke-width="0.6"/>
<path d="M13.4998 25H8.73314C8.49394 25 8.2998 24.8146 8.2998 24.5862C8.2998 24.3578 8.49394 24.1724 8.73314 24.1724H9.5998C10.3165 24.1724 10.8998 23.6155 10.8998 22.9311V20.8621C10.8998 20.6337 11.0939 20.4483 11.3331 20.4483C11.5723 20.4483 11.7665 20.6337 11.7665 20.8621V22.9311C11.7665 23.397 11.6044 23.8265 11.3323 24.1724H13.4998C13.739 24.1724 13.9331 24.3578 13.9331 24.5862C13.9331 24.8146 13.739 25 13.4998 25Z" fill="#7F56D9" stroke="#CEF9D0" stroke-width="0.6"/>
<path d="M14.5111 20.8621H1.8C1.08327 20.8621 0.5 20.3051 0.5 19.6207V17.1379C0.5 16.9095 0.694133 16.7241 0.933333 16.7241H14.5111C14.7503 16.7241 14.9444 16.9095 14.9444 17.1379C14.9444 17.3663 14.7503 17.5517 14.5111 17.5517H1.36667V19.6207C1.36667 19.8483 1.56167 20.0345 1.8 20.0345H14.5111C14.7503 20.0345 14.9444 20.2198 14.9444 20.4483C14.9444 20.6767 14.7503 20.8621 14.5111 20.8621Z" fill="#7F56D9" stroke="#CEF9D0" stroke-width="0.6"/>
<path d="M18.2663 6.7931H22.5997C22.8389 6.7931 23.033 6.60772 23.033 6.37931C23.033 6.15089 22.8389 5.96552 22.5997 5.96552H18.2663C18.0271 5.96552 17.833 6.15089 17.833 6.37931C17.833 6.60772 18.0271 6.7931 18.2663 6.7931Z" fill="#7F56D9" stroke="#CEF9D0" stroke-width="0.6"/>
<path d="M19.9997 23.3448H20.8664C21.1056 23.3448 21.2997 23.1594 21.2997 22.931C21.2997 22.7026 21.1056 22.5172 20.8664 22.5172H19.9997C19.7605 22.5172 19.5664 22.7026 19.5664 22.931C19.5664 23.1594 19.7605 23.3448 19.9997 23.3448Z" fill="#7F56D9" stroke="#CEF9D0" stroke-width="0.6"/>
<path fill-rule="evenodd" clip-rule="evenodd" d="M16.5329 25H24.3329C25.528 25 26.4995 24.0723 26.4995 22.9311V6.37933C26.4995 5.23809 25.528 4.31036 24.3329 4.31036H16.5329C15.3377 4.31036 14.3662 5.23809 14.3662 6.37933V22.9311C14.3662 24.0723 15.3377 25 16.5329 25ZM15.2329 6.37933C15.2329 5.69492 15.8161 5.13795 16.5329 5.13795H24.3329C25.0496 5.13795 25.6329 5.69492 25.6329 6.37933V22.9311C25.6329 23.6155 25.0496 24.1724 24.3329 24.1724H16.5329C15.8161 24.1724 15.2329 23.6155 15.2329 22.9311V6.37933Z" fill="#7F56D9"/>
<path d="M24.3329 24.7H16.5329V25.3H24.3329V24.7ZM26.1995 22.9311C26.1995 23.8937 25.3755 24.7 24.3329 24.7V25.3C25.6805 25.3 26.7995 24.2509 26.7995 22.9311H26.1995ZM26.1995 6.37933V22.9311H26.7995V6.37933H26.1995ZM24.3329 4.61036C25.3755 4.61036 26.1995 5.41667 26.1995 6.37933H26.7995C26.7995 5.05951 25.6805 4.01036 24.3329 4.01036V4.61036ZM16.5329 4.61036H24.3329V4.01036H16.5329V4.61036ZM14.6662 6.37933C14.6662 5.41667 15.4902 4.61036 16.5329 4.61036V4.01036C15.1853 4.01036 14.0662 5.05951 14.0662 6.37933H14.6662ZM14.6662 22.9311V6.37933H14.0662V22.9311H14.6662ZM16.5329 24.7C15.4902 24.7 14.6662 23.8937 14.6662 22.9311H14.0662C14.0662 24.2509 15.1853 25.3 16.5329 25.3V24.7ZM16.5329 4.83795C15.6637 4.83795 14.9329 5.51634 14.9329 6.37933H15.5329C15.5329 5.8735 15.9686 5.43795 16.5329 5.43795V4.83795ZM24.3329 4.83795H16.5329V5.43795H24.3329V4.83795ZM25.9329 6.37933C25.9329 5.51634 25.2021 4.83795 24.3329 4.83795V5.43795C24.8971 5.43795 25.3329 5.8735 25.3329 6.37933H25.9329ZM25.9329 22.9311V6.37933H25.3329V22.9311H25.9329ZM24.3329 24.4724C25.2021 24.4724 25.9329 23.794 25.9329 22.9311H25.3329C25.3329 23.4369 24.8971 23.8724 24.3329 23.8724V24.4724ZM16.5329 24.4724H24.3329V23.8724H16.5329V24.4724ZM14.9329 22.9311C14.9329 23.794 15.6637 24.4724 16.5329 24.4724V23.8724C15.9686 23.8724 15.5329 23.4369 15.5329 22.9311H14.9329ZM14.9329 6.37933V22.9311H15.5329V6.37933H14.9329Z" fill="#CEF9D0"/>
</svg>
