<svg width="27" height="24" viewBox="0 0 27 24" fill="none" xmlns="http://www.w3.org/2000/svg">
<path d="M1.12504 0C0.779841 0 0.5 0.261185 0.5 0.583374V22.9683C0.5 23.2543 0.618694 23.5274 0.827753 23.7225C1.01879 23.9008 1.27038 24 1.5317 24H25.5892C25.9344 24 26.2143 23.7388 26.2143 23.4166C26.2143 23.0944 25.9344 22.8333 25.5892 22.8333H3.75008C2.64552 22.8333 1.75009 21.9378 1.75009 20.8333V0.583374C1.75009 0.261185 1.47025 0 1.12504 0Z" fill="#C11574"/>
<path fill-rule="evenodd" clip-rule="evenodd" d="M6.12511 15.1478C4.99404 15.1357 4.00421 15.855 3.73948 16.8814C3.47474 17.9078 4.00542 18.9687 5.01848 19.4383C6.03154 19.908 7.25792 19.6616 7.97422 18.8445C8.69053 18.0274 8.70651 16.8567 8.01274 16.0229L10.9379 12.0209C11.1918 12.1013 11.4575 12.1446 11.7255 12.1493C12.4104 12.1552 13.0654 11.8877 13.5256 11.4142L16.1258 13.141C16.0858 13.3096 16.0649 13.4817 16.0633 13.6544C16.0633 14.8916 17.1379 15.8945 18.4635 15.8945C19.789 15.8945 20.8636 14.8916 20.8636 13.6544C20.8617 13.1475 20.6718 12.6569 20.3261 12.2659L23.1138 8.28732C24.2488 8.62131 25.4734 8.11978 25.9786 7.11408C26.4837 6.10837 26.1135 4.90899 25.1124 4.30835C24.1113 3.70771 22.7885 3.89125 22.018 4.73771C21.2474 5.58417 21.267 6.83221 22.0637 7.65727L19.2885 11.5775C19.0128 11.4799 18.7208 11.4286 18.426 11.4259C17.7706 11.4255 17.1433 11.6741 16.6883 12.1143L14.0757 10.4108C14.0886 10.2594 14.0886 10.1072 14.0757 9.95577C14.1265 8.94348 13.4429 8.02538 12.4087 7.71693C11.3744 7.40848 10.2471 7.78651 9.65961 8.63877C9.07215 9.49104 9.17088 10.6053 9.90037 11.3559L7.01267 15.3111C6.73104 15.2033 6.42954 15.1478 6.12511 15.1478ZM23.8139 5.1021C24.449 5.1021 24.9639 5.58268 24.9639 6.17551C24.9639 6.76834 24.449 7.24892 23.8139 7.24892C23.1787 7.24892 22.6638 6.76834 22.6638 6.17551C22.6638 5.58268 23.1787 5.1021 23.8139 5.1021ZM19.576 13.6544C19.576 13.0615 19.0611 12.581 18.426 12.581C17.7908 12.581 17.2759 13.0615 17.2759 13.6544C17.2759 14.2472 17.7908 14.7278 18.426 14.7278C19.0611 14.7278 19.576 14.2472 19.576 13.6544ZM11.7254 8.83568C12.3606 8.83568 12.8755 9.31626 12.8755 9.90908C12.8755 10.5019 12.3606 10.9825 11.7254 10.9825C11.0903 10.9825 10.5754 10.5019 10.5754 9.90908C10.5754 9.31626 11.0903 8.83568 11.7254 8.83568ZM5.0604 17.7931C5.23685 18.1971 5.6577 18.4612 6.12512 18.4613C6.75065 18.4615 7.2616 17.995 7.2752 17.4113C7.28536 16.9751 7.01168 16.5766 6.58283 16.4031C6.15398 16.2296 5.65527 16.3155 5.32114 16.6206C4.98702 16.9257 4.88395 17.3892 5.0604 17.7931Z" fill="#C11574"/>
</svg>
