<svg width="18" height="19" viewBox="0 0 18 19" fill="none" xmlns="http://www.w3.org/2000/svg">
<g id="Icons/Instagram/Line">
<path id="Vector" d="M11.9855 2.91229H6.33337C4.47832 2.91229 3.00728 4.46992 3.00728 6.35014V12.2258C3.00728 14.106 4.47832 15.6637 6.33337 15.6637H11.9855C13.8406 15.6637 15.3116 14.106 15.3116 12.2258V6.35014C15.3116 4.46992 13.8406 2.91229 11.9855 2.91229ZM2.59424 6.35014C2.59424 4.17403 4.2864 2.44336 6.33337 2.44336H11.9855C14.0325 2.44336 15.7247 4.17403 15.7247 6.35014V12.2258C15.7247 14.4019 14.0325 16.1326 11.9855 16.1326H6.33337C4.2864 16.1326 2.59424 14.4019 2.59424 12.2258V6.35014Z" fill="#777E91" stroke="#B6CFBF"/>
<path id="Vector_2" d="M12.8986 5.61581C12.8986 5.76376 12.7881 5.85027 12.6921 5.85027C12.5962 5.85027 12.4856 5.76376 12.4856 5.61581C12.4856 5.46786 12.5962 5.38135 12.6921 5.38135C12.7881 5.38135 12.8986 5.46786 12.8986 5.61581Z" fill="#777E91" stroke="#B6CFBF"/>
<path id="Vector_3" d="M12.1919 9.28804C12.1919 11.0585 10.8161 12.4604 9.15932 12.4604C7.50256 12.4604 6.12671 11.0585 6.12671 9.28804C6.12671 7.51756 7.50256 6.11572 9.15932 6.11572C10.8161 6.11572 12.1919 7.51757 12.1919 9.28804ZM9.15932 11.9914C10.6242 11.9914 11.7789 10.7627 11.7789 9.28804C11.7789 7.81342 10.6242 6.58465 9.15932 6.58465C7.69444 6.58465 6.53975 7.81342 6.53975 9.28804C6.53975 10.7627 7.69444 11.9914 9.15932 11.9914Z" fill="#777E91" stroke="#B6CFBF"/>
</g>
</svg>
