<svg width="236" height="36" viewBox="0 0 236 36" fill="none" xmlns="http://www.w3.org/2000/svg">
<g id="Magic Leap (logo &#226;&#128;&#148; Black)">
<path id="Vector" d="M100.65 23.0369C98.2677 23.0369 95.7299 21.3969 95.7299 17.7657C95.7299 14.1345 98.2677 12.4946 100.65 12.4946C103.031 12.4946 105.569 14.1345 105.569 17.7657C105.569 21.3969 103.031 23.0369 100.65 23.0369ZM109.435 17.8048C109.435 12.1041 105.179 8.7462 100.415 8.7462C95.6517 8.7462 91.7862 12.4946 91.7862 17.8048C91.7862 22.8807 95.3394 26.59 99.8687 26.8633C100.571 26.9025 103.656 26.8633 106.077 24.2863H106.155L108.966 26.8633H109.513V17.961C109.474 17.961 109.435 17.8048 109.435 17.8048ZM135.634 0.039048C137.04 0.039048 138.172 1.17137 138.172 2.577C138.172 3.98265 137.04 5.11497 135.634 5.11497C134.307 5.11497 133.174 3.98265 133.174 2.577C133.174 1.17137 134.268 0.039048 135.634 0.039048ZM133.838 26.8633H137.509V8.78525H133.838V26.8633ZM153.908 20.6161C153.01 22.295 151.292 23.0759 149.652 23.0759C147.27 23.0759 144.732 21.436 144.732 17.8048C144.732 14.1735 147.27 12.5336 149.652 12.5336C151.292 12.5336 153.01 13.3145 153.908 14.9544L157.305 12.9631C155.743 10.2299 152.892 8.66813 149.652 8.66813C144.888 8.66813 140.788 12.2213 140.788 17.7267C140.788 23.2711 144.849 26.8242 149.652 26.8242C152.892 26.8242 155.743 25.2625 157.305 22.5293L153.908 20.6161ZM81.0097 8.3948C79.6039 8.3948 78.2374 8.78525 77.1442 9.44903C76.6757 9.7614 75.7384 10.4642 75.3479 11.167H75.2699C74.8794 10.4642 73.9424 9.7614 73.4739 9.44903C72.3414 8.7462 71.0139 8.3948 69.6084 8.3948C65.3914 8.3948 61.9554 11.9089 61.9554 16.2039V26.7073H65.8599V16.2039C65.8599 14.0954 67.5389 12.3384 69.6474 12.3384C71.7167 12.3384 73.4347 14.0564 73.4347 16.2039V26.7073H77.3004V16.2039C77.3004 14.0954 78.9792 12.3384 81.0877 12.3384C83.1572 12.3384 84.8752 14.0564 84.8752 16.2039V26.7073H88.7797V16.2039C88.6627 11.8698 85.2267 8.3948 81.0097 8.3948ZM173.821 26.7073C170.072 26.7073 167.066 24.3644 167.066 20.0304V3.82647H170.853V19.718C170.853 21.8265 172.025 22.8807 173.821 22.8807V26.7073ZM226.298 23.3102C223.916 23.3102 221.378 21.6703 221.378 18.039C221.378 14.4078 223.916 12.7679 226.298 12.7679C228.68 12.7679 231.218 14.4078 231.218 18.039C231.179 21.6703 228.641 23.3102 226.298 23.3102ZM235.161 18C235.161 12.4946 231.101 8.94145 226.298 8.94145C221.73 8.94145 217.786 12.1822 217.435 17.2191V35.922H221.105V24.5206C222.628 26.7463 225.595 27.0195 226.571 27.0585H226.923H226.884C231.062 26.9805 235.161 23.5445 235.161 18ZM205.214 23.2712C202.832 23.2712 200.294 21.6312 200.294 18C200.294 14.3688 202.832 12.7289 205.214 12.7289C207.595 12.7289 210.133 14.3688 210.133 18C210.094 21.6703 207.556 23.2712 205.214 23.2712ZM213.96 18C213.96 12.2993 209.704 8.94145 204.94 8.94145C200.177 8.94145 196.311 12.6898 196.311 18C196.311 23.154 199.942 26.8243 204.511 27.0585H204.862C205.409 27.0585 206.307 26.9805 207.361 26.59C207.634 26.512 207.869 26.3558 208.142 26.2385C208.884 25.8483 209.665 25.3015 210.367 24.5206H210.446L213.413 27.0195H213.96V18ZM184.793 12.6117C187.174 12.6117 188.892 14.0174 189.595 15.9306H180.068C180.771 13.9393 182.489 12.6117 184.793 12.6117ZM188.931 21.1236C188.033 22.4121 186.55 23.1931 184.793 23.1931C182.099 23.1931 180.263 21.475 179.795 19.2104H193.617C193.656 18.82 193.695 18.3904 193.695 18C193.695 13.0022 189.712 8.9024 184.793 8.9024C179.873 8.9024 175.89 13.0022 175.89 18C175.89 22.9978 179.873 27.0975 184.793 27.0975C188.072 27.0975 190.884 25.3015 192.446 22.6464L188.931 21.1236ZM121.187 23.0759C118.806 23.0759 116.268 21.436 116.268 17.8048C116.268 14.1735 118.806 12.5336 121.187 12.5336C123.569 12.5336 126.146 14.1735 126.146 17.8048C126.185 21.475 123.608 23.0759 121.187 23.0759ZM130.051 17.7657C130.051 12.2603 125.951 8.78525 121.187 8.78525C116.424 8.78525 112.324 12.3384 112.324 17.8438C112.324 23.3883 116.424 26.9415 120.914 26.9415H121.422C122.905 26.7852 124.35 26.1995 125.482 25.1845L125.717 24.9501C125.99 24.6378 126.185 24.2473 126.263 23.8959V26.629C126.263 26.629 126.341 28.6595 125.014 30.2213C124.077 31.3927 122.593 31.9783 121.226 31.9783C119.469 31.9783 117.556 31.0413 116.736 29.089L113.105 30.6117C114.511 33.8525 117.634 35.8047 121.148 35.8047C125.951 35.8047 130.012 32.2518 130.012 26.7463L130.051 17.7657ZM43.2134 13.3926C41.2222 5.70065 34.3502 0 26.1897 0C18.0292 0 11.1572 5.70065 9.16583 13.3926C5.10511 16.9848 2.21573 21.7093 0.888184 26.9415C3.77756 25.9263 6.74501 25.1063 9.79056 24.5597C12.3676 31.2755 18.732 36 26.1897 36C33.6864 36 40.0509 31.2755 42.5889 24.5597C45.8687 25.1845 48.8362 25.9653 51.4912 26.9415C50.1637 21.7093 47.2742 16.9848 43.2134 13.3926ZM20.7624 13.0802C19.9815 15.6182 17.6778 17.1019 15.6474 16.4382C13.578 15.7744 12.5628 13.2365 13.3047 10.6985C14.0465 8.16052 16.3893 6.6768 18.4196 7.34058C20.45 7.9653 21.5042 10.5814 20.7624 13.0802ZM36.6539 16.4382C34.5844 17.1019 32.3199 15.5792 31.5389 13.0802C30.7579 10.5423 31.8122 8.00435 33.8817 7.34058C35.9512 6.6768 38.2157 8.19957 38.9967 10.6985C39.8167 13.2365 38.7624 15.7744 36.6539 16.4382Z" fill="black" fill-opacity="0.4"/>
</g>
</svg>
