<svg width="34" height="34" viewBox="0 0 34 34" fill="none" xmlns="http://www.w3.org/2000/svg">
<g id="Mortarboard_fill">
<path id="Vector 443" d="M18.3799 12.5C18.3799 12.7761 18.6037 13 18.8799 13C19.156 13 19.3799 12.7761 19.3799 12.5L18.3799 12.5ZM18.3799 9L18.3799 12.5L19.3799 12.5L19.3799 9L18.3799 9Z" fill="#33363F"/>
<path id="Subtract" fill-rule="evenodd" clip-rule="evenodd" d="M5.208 12.681C5.04177 12.5979 4.84619 12.7188 4.84619 12.9046V18.154C4.84619 18.154 4.84619 23.0001 12.9231 23.0001C21 23.0001 21 18.154 21 18.154V12.9046C21 12.7188 20.8045 12.5979 20.6382 12.681L13.3703 16.315C13.0888 16.4557 12.7574 16.4557 12.4759 16.315L5.208 12.681Z" fill="#F26539"/>
<path id="Vector 444" d="M0.894427 8.05279L12.7764 2.1118C12.9172 2.04142 13.0828 2.04142 13.2236 2.1118L25.1056 8.05279C25.4741 8.23705 25.4741 8.76295 25.1056 8.94721L13.2236 14.8882C13.0828 14.9586 12.9172 14.9586 12.7764 14.8882L0.894427 8.94721C0.525903 8.76295 0.525902 8.23705 0.894427 8.05279Z" fill="#F26539"/>
</g>
</svg>
