<svg width="17" height="16" viewBox="0 0 17 16" fill="none" xmlns="http://www.w3.org/2000/svg">
<g id="8666632_phone_icon 1" clip-path="url(#clip0_269_598)">
<path id="Vector" d="M14.4626 10.9467V12.9467C14.4634 13.1324 14.4253 13.3162 14.3509 13.4863C14.2766 13.6564 14.1675 13.8091 14.0307 13.9346C13.8938 14.0602 13.7323 14.1557 13.5564 14.2152C13.3806 14.2747 13.1942 14.2968 13.0093 14.2801C10.9578 14.0572 8.98727 13.3562 7.25594 12.2334C5.64515 11.2098 4.27949 9.84418 3.25594 8.2334C2.12925 6.4942 1.4281 4.51406 1.20927 2.4534C1.19261 2.26904 1.21452 2.08324 1.2736 1.90781C1.33269 1.73239 1.42765 1.57119 1.55245 1.43448C1.67724 1.29777 1.82914 1.18854 1.99846 1.11375C2.16779 1.03895 2.35083 1.00024 2.53594 1.00006H4.53594C4.85947 0.99688 5.17313 1.11145 5.41844 1.32242C5.66376 1.53339 5.82399 1.82636 5.86927 2.14673C5.95368 2.78678 6.11024 3.41522 6.33594 4.02006C6.42563 4.25868 6.44504 4.51801 6.39187 4.76732C6.3387 5.01663 6.21518 5.24547 6.03594 5.42673L5.18927 6.2734C6.13831 7.94243 7.52024 9.32436 9.18927 10.2734L10.0359 9.42673C10.2172 9.24749 10.446 9.12396 10.6953 9.07079C10.9447 9.01762 11.204 9.03704 11.4426 9.12673C12.0475 9.35243 12.6759 9.50898 13.3159 9.5934C13.6398 9.63909 13.9355 9.8022 14.147 10.0517C14.3584 10.3013 14.4707 10.6198 14.4626 10.9467Z" stroke="#AAFFC7" stroke-width="1.3" stroke-linecap="round" stroke-linejoin="round"/>
</g>
<defs>
<clipPath id="clip0_269_598">
<rect width="16" height="16" fill="white" transform="translate(0.203613)"/>
</clipPath>
</defs>
</svg>
