<svg width="18" height="19" viewBox="0 0 18 19" fill="none" xmlns="http://www.w3.org/2000/svg">
<g id="Icons/Twitter/Line">
<path id="Vector" d="M2.66539 9.10849C2.85725 9.5773 3.10645 10.0397 3.40953 10.4666L3.9619 11.2448L3.00773 11.256C2.94986 11.2567 2.89481 11.257 2.84324 11.2572L9.38717 3.84803C8.82968 4.28291 8.50737 4.86046 8.32644 5.41148L8.32644 5.41149C8.24326 5.66478 8.18696 5.92173 8.15051 6.17178L8.06483 6.75959L7.50026 6.57488C7.09492 6.44227 6.68497 6.26499 6.28591 6.0501C5.38796 5.5666 4.64012 4.94357 4.20002 4.36615L4.20002 4.36615C3.763 3.79276 2.86267 3.84874 2.54288 4.58218L2.08455 4.38233L2.54288 4.58218C1.93019 5.98731 2.08712 7.6953 2.66539 9.10849ZM2.66539 9.10849L2.20265 9.29787L2.66539 9.10849ZM2.05113 12.9095C1.55107 12.1812 2.09018 11.2594 2.84321 11.2572L9.38721 3.84801C9.94812 3.41057 10.6693 3.17822 11.5457 3.17822C12.0129 3.17822 12.5385 3.29185 12.9862 3.44363C13.2144 3.52098 13.4744 3.62554 13.7204 3.7605L13.8821 3.84919L14.0627 3.81165L15.1145 3.59297L15.0128 3.10343L15.1145 3.59296C15.8756 3.43473 16.5725 4.27314 16.1802 5.08889L15.384 6.74423L15.3217 6.87383L15.3377 7.01674C15.846 11.5442 12.2148 15.3986 7.65979 15.3986C4.68503 15.3986 2.97855 14.2601 2.05113 12.9095ZM9.07968 3.45376C8.42368 3.96547 8.05417 4.63795 7.85139 5.25549L13.1468 2.97011C12.6661 2.80714 12.0842 2.67822 11.5457 2.67822C10.5782 2.67822 9.74325 2.93625 9.07968 3.45376ZM2.84699 12.7261H2.84717H2.84699ZM8.71355 5.57409C8.5105 6.19235 8.49054 6.8327 8.51326 7.28365C7.72199 7.18542 6.88462 6.89106 6.11002 6.47397C5.17552 5.97077 4.37548 5.31214 3.88774 4.6722L3.88773 4.67219C3.63254 4.33738 3.09304 4.37641 2.91316 4.78891L2.91315 4.78893C2.37134 6.03154 2.49758 7.5864 3.0401 8.9122C3.45773 9.93278 4.14887 10.8824 5.05904 11.4806C4.82041 11.5478 4.56779 11.5979 4.31207 11.6345C3.74793 11.7153 3.20933 11.725 2.8442 11.7261C2.36259 11.7275 2.12994 12.2627 2.37681 12.6222C3.20978 13.8352 4.78376 14.9296 7.65971 14.9296C12.1363 14.9296 15.5423 11.0904 14.8905 6.7927L15.8175 4.86543L15.8175 4.86535C16.0036 4.47827 15.695 3.94888 15.188 4.0543L13.7995 4.34299C13.5384 4.15688 13.1966 4.00414 12.8691 3.89311C12.4464 3.7498 11.9616 3.64715 11.5456 3.64715C10.7327 3.64715 10.0976 3.86212 9.62018 4.23448C9.1469 4.60363 8.87116 5.09416 8.71355 5.57409ZM14.8326 6.91305L14.8328 6.91261L14.8326 6.91305ZM13.982 4.49183L13.9819 4.49178L13.982 4.49183Z" fill="#777E91" stroke="#B6CFBF"/>
</g>
</svg>
