<svg width="141" height="36" viewBox="0 0 141 36" fill="none" xmlns="http://www.w3.org/2000/svg">
<g id="UserTesting (logo &#226;&#128;&#148; Black)">
<path id="Vector" fill-rule="evenodd" clip-rule="evenodd" d="M61.7069 23.8979V5.56477C61.7069 2.50325 59.2214 0 56.1419 0H6.20296C3.14143 0 0.638184 2.48524 0.638184 5.56477V23.8979C0.638184 26.9595 3.12343 29.4627 6.20296 29.4627H42.3649L52.1619 36L50.1989 29.4627H56.1779C59.2214 29.4447 61.7247 26.9595 61.7069 23.8979ZM11.1915 18.4232C11.4796 18.9275 11.8578 19.3237 12.344 19.5758C12.8303 19.8459 13.3525 19.972 13.9468 19.972C14.5411 19.972 15.0814 19.8279 15.5677 19.5578C16.0539 19.2696 16.4501 18.8734 16.7202 18.3692C17.0084 17.8469 17.1524 17.2706 17.1524 16.6043V8.37418C17.1524 8.24813 17.1885 8.15808 17.2605 8.08605C17.3325 8.014 17.4226 7.978 17.5486 7.978H19.5476C19.6737 7.978 19.7818 8.014 19.8538 8.08605C19.8898 8.12205 19.9258 8.17607 19.9438 8.2121C19.9618 8.26612 19.9799 8.32015 19.9618 8.37418V16.5863C19.9618 17.9009 19.6917 18.9995 19.1514 19.9C18.6112 20.7824 17.8908 21.4487 16.9904 21.8629C16.0899 22.2951 15.0634 22.4932 13.9468 22.4932C12.8303 22.4932 11.8218 22.2771 10.9033 21.8449C9.98486 21.4127 9.26451 20.7464 8.72423 19.8639C8.18396 18.9815 7.91383 17.8829 7.91383 16.5683V8.37418C7.91383 8.26612 7.94983 8.17607 8.02188 8.10405C8.05788 8.06802 8.09391 8.03203 8.12993 8.014C8.16596 7.996 8.21998 7.978 8.27401 7.978H10.3811C10.5071 7.978 10.6152 8.014 10.6692 8.08605C10.7232 8.15808 10.7592 8.24813 10.7592 8.37418V16.6043C10.7592 17.3067 10.9033 17.919 11.1915 18.4232ZM21.8528 19.8459C21.8528 19.9 21.8708 19.972 21.8888 20.026C21.9248 20.098 21.9608 20.1701 21.9969 20.2421C22.4471 20.9445 23.0594 21.5028 23.8158 21.899C24.5722 22.2952 25.4366 22.4932 26.3912 22.4932C27.1474 22.4932 27.8857 22.3492 28.5882 22.0791C29.2904 21.7909 29.8487 21.3767 30.2989 20.8004C30.7312 20.2421 30.9474 19.5578 30.9474 18.7474C30.9474 17.901 30.6772 17.1266 30.1369 16.4602C29.5967 15.7759 28.7862 15.2896 27.6877 14.9475C27.5437 14.8935 27.4177 14.8574 27.2914 14.8214C27.1654 14.7854 27.0574 14.7494 26.9674 14.7314C26.4272 14.5873 26.0309 14.4612 25.7787 14.3532C25.5266 14.2451 25.3105 14.1191 25.1665 13.975C25.0044 13.8129 24.9323 13.6148 24.9323 13.3447C24.9323 13.0025 25.0764 12.7324 25.3645 12.5162C25.6527 12.3001 26.0489 12.1921 26.5532 12.1921C27.0394 12.1921 27.4357 12.2822 27.7597 12.4442C28.0839 12.6063 28.3899 12.8765 28.6962 13.2186C28.8042 13.3447 28.8944 13.4167 29.0024 13.4167C29.0744 13.4167 29.1644 13.3807 29.2544 13.2907L30.3889 12.3542C30.5152 12.2461 30.5872 12.1561 30.5872 12.066C30.5872 11.994 30.5332 11.886 30.4432 11.7419C30.0109 11.2016 29.4707 10.7334 28.8222 10.3732C28.1739 9.995 27.3997 9.8149 26.4812 9.8149C25.6347 9.8149 24.8963 9.977 24.248 10.3191C23.5997 10.6613 23.1134 11.0936 22.7532 11.6338C22.4111 12.1741 22.231 12.7143 22.231 13.2726C22.231 13.957 22.357 14.5513 22.6272 15.0375C22.8973 15.5238 23.2935 15.938 23.8338 16.2801C24.3741 16.6223 25.0764 16.9285 25.9589 17.1986C26.3369 17.3067 26.5712 17.3787 26.6252 17.3967C27.0574 17.5228 27.3814 17.6308 27.5797 17.7208C27.7957 17.8109 27.9579 17.919 28.0659 18.0811C28.1919 18.2431 28.2459 18.4592 28.2459 18.7474C28.2459 19.0175 28.1379 19.2696 27.9399 19.4858C27.7237 19.7019 27.4717 19.8639 27.1474 19.99C26.8412 20.098 26.4992 20.1701 26.1749 20.1701C25.6347 20.1701 25.1845 20.044 24.8243 19.7919C24.4641 19.5398 24.1219 19.1976 23.8158 18.7654C23.7077 18.6213 23.5997 18.5493 23.4736 18.5493C23.4016 18.5493 23.3295 18.5853 23.2575 18.6213L22.0149 19.5037C21.9068 19.6118 21.8528 19.7198 21.8528 19.8459ZM42.1849 18.8194C42.2929 18.8194 42.3649 18.8554 42.4192 18.9455L43.4097 20.1521C43.4817 20.2601 43.5357 20.3502 43.5357 20.4402C43.5357 20.5483 43.4817 20.6383 43.3917 20.7284C42.6712 21.3587 41.9689 21.8089 41.2484 22.097C40.5462 22.3672 39.7717 22.5112 38.9614 22.5112C37.8627 22.5112 36.8182 22.2231 35.8457 21.6648C34.8732 21.0886 34.0989 20.3322 33.5227 19.3597C32.9464 18.3872 32.6582 17.3427 32.6582 16.2081C32.6582 15.0555 32.9284 13.993 33.4687 13.0385C34.0089 12.066 34.7472 11.3096 35.7017 10.7334C36.6562 10.1571 37.7187 9.88695 38.8892 9.88695C39.8437 9.88695 40.7802 10.121 41.7167 10.5893C42.6532 11.0575 43.4277 11.7599 44.0399 12.7143C44.6522 13.6688 44.9584 14.8394 44.9584 16.2261C44.9584 16.5323 44.9224 16.7664 44.8502 16.9104C44.7782 17.0545 44.6702 17.1446 44.5622 17.1626C44.4362 17.1986 44.2379 17.2166 43.9859 17.1986H35.3414C35.4677 17.7749 35.7197 18.2792 36.0619 18.7113C36.4042 19.1436 36.8362 19.4858 37.3404 19.7199C37.8447 19.954 38.3849 20.08 38.9614 20.08C39.4117 20.08 39.7897 20.026 40.1319 19.936C40.4562 19.8459 40.7262 19.7379 40.9424 19.6118C41.1944 19.4677 41.4287 19.3056 41.6447 19.1256L41.9329 18.9095C42.0229 18.8374 42.1129 18.8194 42.1849 18.8194ZM37.4127 12.5703C36.9444 12.8044 36.5482 13.1286 36.2059 13.5248C35.8637 13.9209 35.6117 14.3712 35.4317 14.8755H42.2929C42.0049 14.083 41.5547 13.4347 40.9604 12.9485C40.3659 12.4622 39.6637 12.2281 38.8892 12.2281C38.3849 12.2101 37.8807 12.3362 37.4127 12.5703ZM48.9564 9.977H47.5697C47.3174 9.977 47.1914 10.121 47.1914 10.3912V21.881C47.1914 22.1511 47.3174 22.2771 47.5697 22.2771H49.5507C49.8207 22.2771 49.9469 22.1511 49.9469 21.881V15.1456C49.9469 14.5333 50.0549 14.029 50.2889 13.6148C50.5232 13.2006 50.8112 12.8945 51.1894 12.6964C51.5497 12.4983 51.9459 12.3902 52.3599 12.3902C52.7742 12.3902 53.1524 12.4622 53.5127 12.6063C53.8727 12.7684 54.2149 12.9485 54.5392 13.1646C54.6472 13.2366 54.7552 13.2907 54.8452 13.2907C54.9534 13.2907 55.0254 13.2366 55.1154 13.1286L56.0159 11.8499C56.0879 11.7599 56.1239 11.6698 56.1239 11.5798C56.1239 11.4537 56.0519 11.3277 55.9079 11.1836C55.5477 10.8774 55.0794 10.5713 54.5032 10.2831C53.9449 9.995 53.3324 9.85093 52.6662 9.85093C52.0539 9.85093 51.4957 9.995 50.9914 10.2831C50.4872 10.5713 50.0729 10.9675 49.7487 11.4897L49.5507 10.4272C49.5147 10.2291 49.4607 10.103 49.3524 10.049C49.2624 9.995 49.1364 9.977 48.9564 9.977Z" fill="black" fill-opacity="0.4"/>
<path id="Vector_2" d="M65.2544 7.97803H75.5557C75.8077 7.97803 75.9339 8.1041 75.9339 8.35623V10.1751C75.9339 10.4273 75.8077 10.5713 75.5557 10.5713H71.7557V21.899C71.7557 22.1511 71.6297 22.2772 71.3774 22.2772H69.3064C69.0544 22.2772 68.9284 22.1511 68.9284 21.899V10.5533H65.2364C64.9844 10.5533 64.8582 10.4273 64.8582 10.1571V8.35623C64.8762 8.1041 65.0024 7.97803 65.2544 7.97803Z" fill="black" fill-opacity="0.4"/>
<path id="Vector_3" d="M85.1364 18.8197C85.2444 18.8197 85.3164 18.8557 85.3704 18.9457L86.3609 20.1524C86.4329 20.2604 86.4869 20.3504 86.4869 20.4405C86.4869 20.5485 86.4329 20.6386 86.3429 20.7286C85.6226 21.359 84.9201 21.8092 84.1999 22.0973C83.4794 22.3855 82.7231 22.5115 81.9126 22.5115C80.8141 22.5115 79.7696 22.2234 78.7971 21.6651C77.8246 21.0888 77.0504 20.3324 76.4739 19.36C75.8976 18.3875 75.6096 17.3429 75.6096 16.2084C75.6096 15.0558 75.8796 13.9933 76.4199 13.0388C76.9601 12.0663 77.6986 11.3099 78.6531 10.7336C79.6076 10.1574 80.6701 9.88721 81.8406 9.88721C82.7951 9.88721 83.7496 10.1213 84.6681 10.5896C85.6046 11.0578 86.3789 11.7602 86.9911 12.7146C87.6036 13.6691 87.9096 14.8397 87.9096 16.2264C87.9096 16.5325 87.8736 16.7667 87.8016 16.9107C87.7296 17.0548 87.6216 17.1448 87.5136 17.1629C87.3874 17.1989 87.1894 17.2169 86.9371 17.2169H78.3109C78.4369 17.7932 78.6891 18.2974 79.0314 18.7296C79.3734 19.1619 79.8056 19.504 80.3099 19.7381C80.8141 19.9723 81.3544 20.0983 81.9486 20.0983C82.3989 20.0983 82.7771 20.0443 83.1194 19.9543C83.4434 19.8642 83.7136 19.7562 83.9296 19.6301C84.1819 19.486 84.4159 19.3239 84.6321 19.1438L84.9201 18.9277C84.9561 18.8377 85.0464 18.8197 85.1364 18.8197ZM80.3459 12.5706C79.8776 12.8047 79.4814 13.1288 79.1394 13.525C78.7971 13.9212 78.5451 14.3715 78.3649 14.8757H85.2444C84.9561 14.0833 84.5061 13.435 83.9116 12.9487C83.3174 12.4625 82.6151 12.2284 81.8226 12.2284C81.3184 12.2104 80.7961 12.3364 80.3459 12.5706Z" fill="black" fill-opacity="0.4"/>
<path id="Vector_4" d="M88.7381 20.0259C88.7201 19.9718 88.7021 19.8998 88.7021 19.8458C88.7021 19.7197 88.7561 19.6117 88.8644 19.5036L90.0889 18.5671C90.1429 18.5131 90.2149 18.4771 90.3051 18.4951C90.4311 18.4951 90.5571 18.5671 90.6471 18.7112C90.9534 19.1434 91.2956 19.4856 91.6556 19.7377C92.0159 19.9898 92.4661 20.1159 93.0064 20.1159C93.3486 20.1159 93.6726 20.0619 93.9789 19.9358C94.3031 19.8098 94.5731 19.6477 94.7711 19.4316C94.9694 19.2155 95.0774 18.9633 95.0774 18.6932C95.0774 18.4051 95.0234 18.1889 94.8974 18.0269C94.7711 17.8648 94.6091 17.7567 94.4111 17.6667C94.2129 17.5766 93.8889 17.4686 93.4566 17.3425C93.3846 17.3245 93.1684 17.2705 92.7904 17.1444C91.9079 16.8743 91.2054 16.5681 90.6651 16.226C90.1249 15.8838 89.7286 15.4696 89.4586 14.9833C89.1884 14.4971 89.0624 13.9028 89.0624 13.2185C89.0624 12.6602 89.2424 12.1199 89.5846 11.5796C89.9269 11.0394 90.4311 10.6072 91.0794 10.265C91.7276 9.92282 92.4661 9.76074 93.3126 9.76074C94.2129 9.76074 95.0054 9.94082 95.6536 10.319C96.3021 10.6972 96.8424 11.1474 97.2746 11.6877C97.3826 11.8138 97.4186 11.9218 97.4186 12.0119C97.4186 12.1019 97.3466 12.21 97.2204 12.3L96.0859 13.2365C95.9779 13.3085 95.9059 13.3625 95.8339 13.3625C95.7436 13.3625 95.6356 13.2905 95.5276 13.1644C95.2394 12.8223 94.9154 12.5701 94.5911 12.39C94.2669 12.228 93.8529 12.1379 93.3846 12.1379C92.8804 12.1379 92.4841 12.246 92.1959 12.4621C91.9079 12.6782 91.7636 12.9483 91.7636 13.2905C91.7636 13.5606 91.8359 13.7587 91.9979 13.9208C92.1599 14.0829 92.3581 14.209 92.6101 14.299C92.8624 14.4071 93.2764 14.5151 93.7989 14.6772C93.9069 14.6952 94.0149 14.7312 94.1229 14.7672C94.2489 14.8033 94.3751 14.8393 94.5191 14.8933C95.6176 15.2175 96.4281 15.7217 96.9684 16.4061C97.5086 17.0904 97.7786 17.8468 97.7786 18.6932C97.7786 19.4856 97.5626 20.1699 97.1304 20.7462C96.6981 21.3045 96.1219 21.7367 95.4196 22.0249C94.7171 22.313 93.9789 22.4571 93.2224 22.4391C92.2679 22.4391 91.4036 22.241 90.6471 21.8448C89.8909 21.4486 89.2966 20.8903 88.8284 20.1879C88.8104 20.1699 88.7744 20.0979 88.7381 20.0259Z" fill="black" fill-opacity="0.4"/>
<path id="Vector_5" d="M104.388 10.0673C104.658 10.0673 104.802 10.2114 104.802 10.4815V12.0663C104.802 12.1924 104.766 12.3004 104.676 12.3725C104.586 12.4445 104.478 12.4805 104.352 12.4805H102.965V18.4775C102.965 18.9097 103.037 19.2519 103.199 19.522C103.361 19.7742 103.632 19.9182 104.01 19.9363L104.316 19.9543C104.532 19.9723 104.676 20.0263 104.73 20.1344C104.784 20.2424 104.82 20.3685 104.802 20.4945V21.8632C104.802 22.1874 104.55 22.3495 104.064 22.3495C103.307 22.3495 102.641 22.2054 102.065 21.9172C101.471 21.6291 101.02 21.2149 100.696 20.6746C100.372 20.1344 100.21 19.504 100.21 18.7837V12.4985H99.0935C98.9855 12.4985 98.8772 12.4625 98.8052 12.3905C98.7152 12.3184 98.6792 12.2104 98.6792 12.0843V10.5175C98.6792 10.3735 98.7152 10.2654 98.8052 10.1754C98.8772 10.1033 98.9855 10.0673 99.0935 10.0673H100.21V8.05032C100.21 7.90624 100.228 7.81619 100.282 7.74417C100.336 7.67212 100.444 7.63612 100.588 7.58209L102.551 7.00579C102.587 6.98779 102.623 6.98779 102.659 6.98779C102.695 6.98779 102.749 7.00579 102.785 7.02379C102.821 7.04182 102.857 7.07784 102.875 7.11384C102.929 7.18589 102.947 7.29394 102.947 7.41999V10.0493L104.388 10.0673Z" fill="black" fill-opacity="0.4"/>
<path id="Vector_6" d="M107.432 5.58301H109.106C109.467 5.58301 109.647 5.78111 109.647 6.19533V7.88816C109.647 8.08626 109.611 8.23033 109.521 8.30238C109.431 8.37441 109.286 8.42843 109.106 8.42843H107.432C107.035 8.42843 106.837 8.24836 106.837 7.88816V6.19533C106.837 5.78111 107.035 5.58301 107.432 5.58301ZM107.035 10.0853C107.107 10.0132 107.197 9.97721 107.305 9.97721H109.34C109.449 9.97721 109.539 10.0132 109.611 10.0853C109.683 10.1573 109.719 10.2474 109.719 10.3734V21.8812C109.719 22.1333 109.593 22.2774 109.34 22.2774H107.305C107.053 22.2774 106.927 22.1513 106.927 21.8812V10.3734C106.927 10.2474 106.963 10.1573 107.035 10.0853Z" fill="black" fill-opacity="0.4"/>
<path id="Vector_7" d="M114.473 22.1693C114.365 22.2413 114.221 22.2773 114.095 22.2773H112.33C112.06 22.2773 111.916 22.1333 111.916 21.8631V10.3734C111.916 10.1032 112.06 9.95917 112.33 9.95917H113.627C113.753 9.95917 113.897 10.0132 113.987 10.1032C114.095 10.1933 114.167 10.3194 114.203 10.4454L114.365 11.8321C114.833 11.1658 115.392 10.6795 116.058 10.3554C116.724 10.0312 117.445 9.86914 118.183 9.86914C118.921 9.86914 119.642 10.0492 120.344 10.4274C121.047 10.8056 121.623 11.3819 122.091 12.1563C122.541 12.9307 122.775 13.9031 122.775 15.0557V21.8451C122.775 22.1153 122.649 22.2413 122.397 22.2413H120.47C120.2 22.2413 120.056 22.1153 120.056 21.8451V15.1458C120.056 14.6775 119.948 14.2453 119.714 13.8311C119.48 13.4169 119.156 13.0747 118.759 12.8226C118.345 12.5705 117.895 12.4444 117.391 12.4444C116.958 12.4444 116.526 12.5525 116.112 12.7866C115.68 13.0207 115.338 13.3449 115.068 13.7771C114.797 14.2093 114.653 14.7135 114.653 15.2718V21.8271C114.635 21.9892 114.581 22.0792 114.473 22.1693Z" fill="black" fill-opacity="0.4"/>
<path id="Vector_8" d="M136.138 23.4297C135.598 24.4022 134.878 25.1405 133.941 25.6448C133.005 26.149 131.924 26.3832 130.717 26.3832C129.907 26.3832 129.115 26.239 128.34 25.969C127.548 25.6987 126.882 25.3208 126.323 24.8524C126.215 24.7624 126.161 24.6723 126.161 24.5643C126.161 24.4922 126.197 24.4022 126.287 24.2761L127.098 23.1055C127.188 22.9795 127.296 22.9074 127.44 22.9074C127.548 22.9074 127.656 22.9435 127.782 23.0335C128.628 23.6278 129.673 23.9159 130.952 23.9159C131.6 23.9159 132.176 23.7719 132.68 23.4837C133.185 23.2136 133.599 22.7994 133.869 22.2951C134.157 21.7909 134.301 21.2146 134.301 20.5662V20.5303C133.761 21.1065 133.185 21.5388 132.59 21.8269C131.996 22.115 131.294 22.2591 130.501 22.2591C129.439 22.2591 128.43 22.007 127.512 21.4667C126.575 20.9444 125.837 20.2061 125.279 19.2696C124.72 18.3331 124.432 17.2706 124.45 16.082C124.45 14.9655 124.72 13.9209 125.279 12.9664C125.837 12.012 126.575 11.2376 127.512 10.6613C128.448 10.085 129.439 9.79688 130.501 9.79688C132.032 9.79688 133.347 10.3912 134.445 11.5618L134.607 10.4272C134.625 10.2471 134.679 10.121 134.751 10.049C134.824 9.97697 134.932 9.94095 135.076 9.94095H136.624C136.859 9.94095 136.985 10.085 136.985 10.3552V19.8099C136.931 21.2686 136.66 22.4572 136.138 23.4297ZM133.869 14.2271C133.545 13.6508 133.113 13.1826 132.554 12.8404C131.996 12.4982 131.384 12.3181 130.681 12.3181C129.961 12.3181 129.331 12.4982 128.772 12.8404C128.214 13.1826 127.8 13.6508 127.476 14.2451C127.17 14.8394 127.008 15.4697 127.008 16.1721C127.008 16.9104 127.17 17.5587 127.494 18.135C127.818 18.7113 128.268 19.1616 128.827 19.4857C129.385 19.8099 130.015 19.972 130.699 19.972C131.384 19.972 131.996 19.8099 132.536 19.4677C133.077 19.1255 133.509 18.6573 133.833 18.081C134.139 17.4867 134.301 16.8564 134.301 16.1721C134.337 15.4517 134.175 14.8034 133.869 14.2271Z" fill="black" fill-opacity="0.4"/>
<path id="Vector_9" d="M139.271 9.97705C138.497 9.97705 137.867 10.6074 137.867 11.3818C137.867 12.1562 138.497 12.7865 139.271 12.7865C140.046 12.7865 140.676 12.1562 140.676 11.3818C140.676 10.6254 140.046 9.97705 139.271 9.97705ZM139.271 12.4983C138.677 12.4983 138.173 11.9941 138.173 11.3818C138.173 10.7695 138.677 10.2652 139.271 10.2652C139.866 10.2652 140.37 10.7515 140.37 11.3818C140.37 11.9941 139.866 12.4983 139.271 12.4983Z" fill="black" fill-opacity="0.4"/>
<path id="Vector_10" d="M138.731 10.6254C138.731 10.6254 138.749 10.6074 138.767 10.6074H139.416C139.506 10.6074 139.596 10.6254 139.668 10.6794C139.74 10.7335 139.794 10.7875 139.848 10.8595C139.884 10.9316 139.92 11.0216 139.92 11.1117C139.92 11.2017 139.902 11.2737 139.848 11.3638C139.794 11.4358 139.74 11.5079 139.65 11.5439L139.938 12.1022V12.1202V12.1382H139.92H139.65C139.632 12.1382 139.632 12.1382 139.614 12.1382C139.614 12.1382 139.596 12.1202 139.596 12.1022L139.344 11.5979H139.038V12.0841C139.038 12.1202 139.02 12.1202 139.002 12.1202H138.785C138.749 12.1202 138.749 12.1022 138.749 12.0841V10.6254C138.713 10.6434 138.713 10.6254 138.731 10.6254ZM139.02 11.3638H139.344C139.398 11.3638 139.434 11.3458 139.47 11.3278C139.506 11.3098 139.542 11.2737 139.56 11.2377C139.578 11.2017 139.596 11.1657 139.596 11.1117C139.596 11.0756 139.578 11.0216 139.56 10.9856C139.542 10.9496 139.506 10.9136 139.47 10.8956C139.434 10.8775 139.398 10.8595 139.344 10.8595H139.02V11.3638Z" fill="black" fill-opacity="0.4"/>
</g>
</svg>
